#!OML:ASF H:\Terrain\Walking\May29\JustinRory\Justin.ASF
:FULLY-SPECIFIED
:DEGREES
150
root 2.95796 17.812 13.2923 -0.164443 4.02835 2.53081
lowerback 3.74231 2.3831 -5.83776
upperback 1.11069 2.94553 -0.861612
thorax -1.20026 1.47998 2.23476
lowerneck -13.0419 16.5035 -2.37112
upperneck 10.3842 24.2356 -10.009
head 6.26178 10.9434 -0.416975
rclavicle -1.18153e-014 7.95139e-016
rhumerus -23.2474 -8.68909 -40.7673
rradius 96.5951
rwrist -30.6292
rhand -9.80152 29.6474
rfingers 7.12502
rthumb 16.1748 0.302262
lclavicle -1.18153e-014 7.95139e-016
lhumerus 0.866805 3.88517 89.0382
lradius 74.2724
lwrist 24.9527
lhand 7.46865 32.4633
lfingers 7.12502
lthumb 32.7217 59.5219
rfemur -27.1296 -8.89364 16.8938
rtibia 40.0264
rfoot -10.3138 -11.7545
rtoes 5.03906
lfemur -3.22688 -1.64403 -23.3211
ltibia 25.3226
lfoot -19.2773 -0.820227
ltoes 0.96909
151
root 2.9531 17.8265 13.4131 0.136535 3.91393 0.645421
lowerback 3.56684 2.42002 -3.99328
upperback 0.940024 3.07507 -0.342096
thorax -1.22238 1.54511 1.73825
lowerneck -12.2237 16.4727 -2.284
upperneck 9.46245 24.0557 -10.3955
head 5.88755 10.935 -0.665956
rclavicle 3.77691e-015 1.19271e-015
rhumerus -24.1902 -7.85213 -41.3384
rradius 97.0738
rwrist -30.6192
rhand -9.83163 29.5831
rfingers 7.12502
rthumb 16.1458 0.235591
lclavicle 3.77691e-015 1.19271e-015
lhumerus 1.03595 3.59209 88.9016
lradius 74.9769
lwrist 24.7586
lhand 7.72188 33.4012
lfingers 7.12502
lthumb 32.9625 60.4093
rfemur -27.2414 -7.90526 19.0743
rtibia 37.0579
rfoot -8.96104 -11.9128
rtoes -0.910667
lfemur -3.2404 -1.39258 -21.1212
ltibia 25.3591
lfoot -19.6249 -1.04301
ltoes 0.898418
152
root 2.9339 17.8325 13.5196 0.553251 3.54342 -0.378168
lowerback 3.35591 2.59723 -3.21406
upperback 0.908567 3.35159 0.00836223
thorax -1.13037 1.68095 1.65832
lowerneck -12.8923 16.4555 -2.63541
upperneck 9.89744 24.1336 -10.0383
head 6.05098 10.9283 -0.445719
rclavicle -1.3741e-014 4.57205e-015
rhumerus -24.8001 -7.07223 -41.8073
rradius 97.4036
rwrist -30.6892
rhand -9.95666 29.5098
rfingers 7.12502
rthumb 16.0254 0.152532
lclavicle -1.3741e-014 4.57205e-015
lhumerus 1.40544 3.40774 88.9319
lradius 75.7262
lwrist 24.3743
lhand 7.83748 33.4357
lfingers 7.12502
lthumb 33.0725 60.4206
rfemur -27.6057 -6.21591 20.2353
rtibia 34.1918
rfoot -7.26093 -12.2433
rtoes -4.38589
lfemur -3.25012 -1.07039 -19.8616
ltibia 25.0611
lfoot -19.647 -0.717078
ltoes -3.1389
153
root 2.92211 17.8335 13.6425 0.725171 3.73063 0.62826
lowerback 3.49719 2.58036 -4.44732
upperback 0.882075 3.27637 -0.164374
thorax -1.29066 1.64908 2.16384
lowerneck -13.8355 16.4862 -3.1751
upperneck 10.9819 24.3263 -9.09408
head 6.37052 10.9591 0.0202155
rclavicle 6.65929e-015 4.37326e-015
rhumerus -25.2662 -5.95298 -42.362
rradius 97.552
rwrist -30.4122
rhand -10.2485 29.4851
rfingers 7.12502
rthumb 15.7443 0.10546
lclavicle 6.65929e-015 4.37326e-015
lhumerus 1.45703 3.40294 88.8932
lradius 76.4158
lwrist 23.9133
lhand 7.46582 32.8364
lfingers 7.12502
lthumb 32.719 59.8955
rfemur -27.5644 -5.57552 19.0118
rtibia 31.6951
rfoot -6.51215 -11.8811
rtoes -1.35516
lfemur -2.40827 -1.25826 -20.9097
ltibia 24.0161
lfoot -19.6496 -0.588718
ltoes -6.06121
154
root 2.92415 17.8474 13.7893 0.562486 4.76168 1.99173
lowerback 3.90669 2.28707 -5.79955
upperback 0.885823 2.80388 -0.485837
thorax -1.5298 1.42247 2.59592
lowerneck -14.2707 16.4777 -3.73774
upperneck 11.566 24.3769 -8.2375
head 6.44996 10.9764 0.380463
rclavicle -1.58779e-014 1.90833e-014
rhumerus -25.7529 -4.77218 -42.9688
rradius 97.5922
rwrist -30.1234
rhand -10.1041 29.5015
rfingers 7.12502
rthumb 15.8834 0.132896
lclavicle -1.58779e-014 1.90833e-014
lhumerus 1.43591 3.25472 88.6186
lradius 77.0799
lwrist 23.5752
lhand 7.46815 32.6109
lfingers 7.12502
lthumb 32.7212 59.6696
rfemur -27.0172 -6.18064 17.2156
rtibia 29.636
rfoot -6.71569 -10.8549
rtoes 0.582896
lfemur -0.805048 -1.83129 -22.3463
ltibia 22.5006
lfoot -19.6096 -1.24045
ltoes -6.2427
155
root 2.9501 17.8459 13.9801 -0.255743 5.03361 3.22334
lowerback 4.09605 2.30315 -6.66172
upperback 1.4174 2.7923 -0.904226
thorax -1.10395 1.39518 2.65101
lowerneck -13.3739 16.4874 -3.49148
upperneck 10.3803 24.2193 -8.85829
head 6.02956 10.9833 0.03099
rclavicle 1.84621e-014 -7.55382e-015
rhumerus -26.1115 -4.08966 -43.6853
rradius 97.6968
rwrist -29.9381
rhand -9.29474 29.7046
rfingers 7.12502
rthumb 16.6627 0.39985
lclavicle 1.84621e-014 -7.55382e-015
lhumerus 1.79882 3.04729 88.3321
lradius 77.7775
lwrist 23.2762
lhand 8.12666 32.2671
lfingers 7.12502
lthumb 33.3474 59.1933
rfemur -25.6448 -6.5374 15.4438
rtibia 27.4252
rfoot -6.44641 -9.08376
rtoes 0.985224
lfemur 1.57243 -2.20399 -23.9095
ltibia 21.4102
lfoot -19.6864 -1.09133
ltoes -5.98099
